<?xml version="1.0" encoding="UTF-8"?> <svg xmlns="http://www.w3.org/2000/svg" width="9" height="13" viewBox="0 0 9 13" fill="none"> <path fill-rule="evenodd" clip-rule="evenodd" d="M4.02723 0.58436L4.74807 2.14357C4.97493 2.5938 4.77749 3.16166 4.2946 3.38319L3.72368 3.65081C3.53386 3.74334 3.32313 3.77036 3.1537 3.77036C3.14987 3.77036 3.14603 3.77027 3.1422 3.77007L3.1426 3.77009C3.14254 3.77009 3.14247 3.77008 3.1422 3.77007L3.13741 3.76992C3.1327 3.76979 3.1249 3.76966 3.11441 3.7697C3.09339 3.76977 3.06181 3.77056 3.02265 3.77354C2.94365 3.77955 2.83743 3.7942 2.72619 3.82795C2.50409 3.89533 2.28539 4.02962 2.19073 4.30563C2.08703 4.63345 2.13935 5.11803 2.29935 5.685C2.4569 6.24328 2.70702 6.84234 2.95454 7.37605C3.20093 7.90734 3.50646 8.48134 3.8423 8.95879C4.18376 9.44422 4.53374 9.79632 4.85863 9.93004C5.12862 10.0393 5.37495 9.96312 5.57529 9.83744C5.67506 9.77486 5.75694 9.70345 5.81415 9.64704C5.84251 9.61908 5.86416 9.59544 5.87827 9.57936C5.88531 9.57134 5.89043 9.56526 5.89352 9.56152L5.89653 9.55784L5.89671 9.55761L5.89696 9.55729L5.89933 9.55434C6.01983 9.4067 6.16991 9.28966 6.3465 9.20313L6.34995 9.20147L6.92178 8.93343C7.38178 8.70929 7.9631 8.90305 8.18915 9.37781L8.19019 9.37999L8.91436 10.9464C9.13311 11.4365 8.92182 12.0553 8.40581 12.2789L7.88522 12.5219L7.88064 12.524C7.86147 12.5324 7.84202 12.5409 7.82229 12.5496C7.10831 12.8643 6.03387 13.3379 4.81276 12.6354C3.61103 11.944 2.34014 10.433 1.25925 8.14174L1.25888 8.14095C0.178171 5.82542 -0.164445 3.92204 0.0702734 2.56666C0.314422 1.13178 1.41143 0.649829 2.13184 0.33333L2.13921 0.330095L2.66048 0.0868025C2.6626 0.0858161 2.66473 0.0848629 2.66687 0.0839432C3.16753 -0.130743 3.79987 0.0771504 4.02723 0.58436ZM2.12421 0.808975L3.32325 3.32728C3.26867 3.33599 3.21273 3.34008 3.15819 3.34029C3.15737 3.34026 3.15649 3.34023 3.15555 3.3402C3.15366 3.34013 3.15152 3.34007 3.14916 3.34C3.14024 3.33977 3.12797 3.33957 3.11275 3.33963C3.08235 3.33974 3.03992 3.34087 2.9887 3.34476C2.88695 3.3525 2.74698 3.37145 2.59644 3.41712C2.2955 3.50842 1.92881 3.71578 1.77381 4.17154L1.77254 4.1754C1.62775 4.6295 1.71266 5.21928 1.87645 5.79965C2.043 6.38985 2.30397 7.01256 2.55508 7.55402C2.80731 8.0979 3.12506 8.69681 3.48105 9.2029C3.83127 9.70079 4.24153 10.1428 4.68938 10.3268L4.69034 10.3272C5.14315 10.5109 5.54484 10.3672 5.81183 10.1997C5.94579 10.1156 6.05245 10.0221 6.12535 9.95023C6.16205 9.91405 6.19084 9.88271 6.21091 9.85984C6.22096 9.84838 6.22887 9.83901 6.23454 9.83215C6.23737 9.82872 6.23965 9.82591 6.24136 9.82379L6.24279 9.82199C6.27558 9.78194 6.31186 9.74504 6.35185 9.71129L7.52874 12.207C6.82942 12.5106 5.99359 12.816 5.03487 12.2645C3.943 11.6363 2.72086 10.2152 1.65771 7.96165C0.594581 5.68364 0.289006 3.87304 0.502924 2.63833L0.503036 2.63769C0.688563 1.54664 1.44271 1.11776 2.12421 0.808975ZM7.92681 12.0261L8.22012 11.8892C8.22223 11.8882 8.22436 11.8873 8.22651 11.8864C8.50542 11.7668 8.64177 11.4106 8.51288 11.12L7.79153 9.55968C7.79137 9.55935 7.79121 9.55902 7.79105 9.55869C7.66804 9.30176 7.35361 9.20263 7.11614 9.319L7.11268 9.32066L6.7346 9.49788L7.92681 12.0261ZM3.73255 3.16993L4.10803 2.99393C4.37092 2.87368 4.4725 2.565 4.35361 2.33197C4.35237 2.32952 4.35116 2.32704 4.35001 2.32455L3.62583 0.758109C3.50404 0.485279 3.14185 0.351623 2.84571 0.476691L2.52212 0.627717L3.73255 3.16993Z" fill="#878787"></path> </svg> 